<svg width="52" height="50" viewBox="0 0 52 50" fill="none" xmlns="http://www.w3.org/2000/svg">
<g clip-path="url(#clip0_128_4669)">
<path fill-rule="evenodd" clip-rule="evenodd" d="M30.3656 24.0174C30.9843 24.4702 31.8312 24.5259 32.7588 24.556C33.9271 24.5982 35.246 24.7403 36.5817 24.9358C37.793 25.1121 39.2164 25.4867 40.4052 25.9649C42.6178 26.8885 44.5612 28.0228 46.6718 30.2143C46.8023 30.3499 47.0041 30.4031 47.1795 30.3371C49.4655 29.4832 50.7869 27.8226 51.3538 26.356C51.9472 24.8275 52.0206 23.1734 51.4802 21.545C50.9908 20.0767 50.0752 18.8389 48.7925 18.0184C49.3452 16.6027 49.3574 15.0643 48.8863 13.5905C48.3643 11.956 47.3284 10.6615 45.9478 9.77162C44.5673 8.88178 42.3996 8.3015 39.9362 9.02467C37.5524 9.72243 35.0115 11.5031 33.4095 13.2517C31.698 15.1232 30.5634 17.2251 29.7601 19.2511C29.4549 20.0564 29.1547 21.1552 29.2589 22.0371C29.3729 22.8568 29.7116 23.5462 30.3656 24.0174ZM28.6386 29.2013C28.3975 29.9277 28.6061 30.7476 28.8639 31.6363C29.1847 32.757 29.4567 34.0509 29.6828 35.3775C29.889 36.5802 29.9712 38.0446 29.8825 39.3198C29.6851 41.7029 29.203 43.8956 27.7644 46.5737C27.6752 46.7395 27.6867 46.9462 27.8043 47.0934C29.3254 48.9964 31.3179 49.7352 32.893 49.8202C34.5343 49.9088 36.1351 49.4684 37.5218 48.4521C38.7718 47.5358 39.6711 46.2844 40.0565 44.8143C41.5778 44.9023 43.0501 44.4379 44.3103 43.5358C45.7092 42.5356 46.6249 41.1537 47.047 39.5706C47.4691 37.9873 47.3529 35.7515 45.9009 33.6397C44.5 31.5964 42.0162 29.7389 39.8506 28.7598C37.5361 27.7159 35.1808 27.2899 32.9992 27.1543C32.1366 27.1139 30.9953 27.169 30.1859 27.5401C29.439 27.9015 28.8859 28.4356 28.6386 29.2013ZM23.1582 29.1659C22.3908 29.1621 21.6726 29.6131 20.9044 30.1322C19.9344 30.7826 18.7836 31.4403 17.5876 32.0647C16.5038 32.6318 15.132 33.1621 13.8877 33.472C11.5526 34.0214 9.31149 34.2419 6.3116 33.7058C6.12582 33.6726 5.9321 33.7472 5.8281 33.9041C4.48222 35.9342 4.3929 38.0513 4.7985 39.5706C5.22123 41.1539 6.13622 42.5356 7.53451 43.5358C8.79516 44.4379 10.2667 44.9023 11.7889 44.8143C12.1752 46.2844 13.073 47.5358 14.3233 48.4521C15.7099 49.4684 17.3111 49.9088 18.9525 49.8202C20.5939 49.7316 22.6912 48.9302 24.2577 46.9017C25.7741 44.9411 26.779 42.0125 27.0445 39.6588C27.3253 37.1419 27.0037 34.7769 26.4588 32.6671C26.2309 31.8369 25.8259 30.772 25.2214 30.1196C24.6458 29.5232 23.9653 29.1641 23.1582 29.1659ZM25.9529 20.7781C26.5761 20.3318 26.891 19.546 27.2064 18.6761C27.6077 17.5816 28.1508 16.3755 28.7501 15.1696C29.2925 14.0759 30.0897 12.843 30.9135 11.8633C32.4786 10.0509 34.1612 8.55943 36.9039 7.23564C37.0752 7.15373 37.1874 6.97975 37.1792 6.79194C37.0711 4.36105 35.8945 2.59601 34.671 1.60455C33.3946 0.571213 31.8395 -0.0104941 30.1184 -0.000858739C28.5666 0.00820512 27.1022 0.494587 25.9227 1.4576C24.7433 0.494587 23.2789 0.00820512 21.727 -0.000858739C20.0059 -0.0104941 18.4506 0.571213 17.1751 1.60455C15.8996 2.63788 14.6754 4.51512 14.6043 7.07386C14.5337 9.54825 15.4477 12.5064 16.6211 14.5659C17.878 16.7667 19.5329 18.4917 21.2179 19.8793C21.8918 20.4176 22.8476 21.0417 23.7214 21.2153C24.5387 21.3606 25.3012 21.2525 25.9529 20.7781ZM21.4985 23.9602C21.2652 23.2314 20.6128 22.6901 19.8801 22.1224C18.9596 21.4037 17.9765 20.5161 17.0112 19.5753C16.1351 18.7232 15.2052 17.5867 14.5249 16.5029C13.2792 14.4592 12.376 12.4031 11.9608 9.39357C11.9351 9.20719 11.804 9.04662 11.6219 8.99642C9.26887 8.34804 7.22129 8.91755 5.89702 9.77162C4.51688 10.6615 3.48137 11.956 2.95892 13.5905C2.48766 15.0641 2.49928 16.6027 3.05354 18.0184C1.77026 18.8389 0.853636 20.0767 0.365651 21.545C-0.175556 23.1734 -0.101125 24.8275 0.490655 26.356C1.08244 27.8844 2.49541 29.6249 4.91494 30.483C7.25433 31.3145 10.3592 31.3623 12.6872 30.8865C15.1755 30.3751 17.3327 29.3393 19.1776 28.171C19.8995 27.6982 20.7902 26.985 21.226 26.2106C21.6173 25.4806 21.7497 24.7245 21.4985 23.9602Z" fill="white"/>
</g>
<defs>
<clipPath id="clip0_128_4669">
<rect width="52" height="50" fill="white"/>
</clipPath>
</defs>
</svg>
