<svg width="29" height="28" viewBox="0 0 29 28" fill="none" xmlns="http://www.w3.org/2000/svg">
<path fill-rule="evenodd" clip-rule="evenodd" d="M16.9346 13.4503C17.2797 13.7039 17.752 13.735 18.2693 13.7519C18.9209 13.7756 19.6564 13.8551 20.4013 13.9646C21.0769 14.0633 21.8707 14.2731 22.5337 14.5409C23.7676 15.0581 24.8514 15.6933 26.0285 16.9206C26.1013 16.9965 26.2139 17.0263 26.3117 16.9893C27.5865 16.5111 28.3235 15.5812 28.6396 14.7599C28.9706 13.904 29.0115 12.9777 28.7101 12.0657C28.4372 11.2435 27.9266 10.5503 27.2112 10.0908C27.5194 9.29807 27.5262 8.43656 27.2635 7.61124C26.9724 6.69589 26.3947 5.97096 25.6248 5.47265C24.8548 4.97435 23.6459 4.64939 22.2721 5.05436C20.9427 5.44511 19.5257 6.4423 18.6322 7.4215C17.6777 8.46956 17.045 9.64659 16.597 10.7812C16.4267 11.2321 16.2593 11.8474 16.3175 12.3413C16.381 12.8003 16.5699 13.1864 16.9346 13.4503ZM15.9715 16.3533C15.8371 16.7601 15.9534 17.2192 16.0972 17.7168C16.2761 18.3445 16.4278 19.069 16.5539 19.812C16.6689 20.4854 16.7147 21.3055 16.6652 22.0196C16.5551 23.3542 16.2863 24.5821 15.484 26.0818C15.4343 26.1747 15.4406 26.2904 15.5063 26.3728C16.3545 27.4385 17.4657 27.8523 18.3442 27.8999C19.2595 27.9495 20.1523 27.7028 20.9256 27.1337C21.6228 26.6206 22.1243 25.9198 22.3392 25.0966C23.1876 25.1458 24.0087 24.8858 24.7115 24.3806C25.4917 23.8205 26.0023 23.0466 26.2377 22.1601C26.4731 21.2734 26.4083 20.0214 25.5986 18.8388C24.8173 17.6945 23.4321 16.6543 22.2244 16.1061C20.9336 15.5215 19.62 15.2829 18.4034 15.207C17.9224 15.1843 17.2858 15.2152 16.8345 15.423C16.4179 15.6254 16.1095 15.9245 15.9715 16.3533ZM12.9151 16.3335C12.4872 16.3313 12.0866 16.5839 11.6582 16.8746C11.1172 17.2388 10.4755 17.6071 9.80849 17.9568C9.20404 18.2743 8.43901 18.5713 7.74506 18.7449C6.44279 19.0525 5.19294 19.176 3.51993 18.8758C3.41633 18.8572 3.30829 18.899 3.25029 18.9869C2.4997 20.1237 2.44989 21.3093 2.67609 22.1601C2.91184 23.0468 3.42212 23.8205 4.20194 24.3806C4.90499 24.8858 5.72564 25.1458 6.5746 25.0966C6.78999 25.9198 7.29072 26.6206 7.98798 27.1337C8.76131 27.7028 9.65428 27.9495 10.5697 27.8999C11.485 27.8502 12.6547 27.4014 13.5283 26.2655C14.374 25.1676 14.9344 23.5275 15.0825 22.2095C15.2391 20.8 15.0598 19.4756 14.7559 18.2941C14.6287 17.8292 14.4029 17.2329 14.0658 16.8675C13.7448 16.5336 13.3653 16.3324 12.9151 16.3335ZM14.4737 11.6363C14.8213 11.3863 14.9969 10.9463 15.1728 10.4592C15.3966 9.84623 15.6995 9.17082 16.0337 8.49552C16.3362 7.88304 16.7808 7.19261 17.2402 6.64399C18.1131 5.62904 19.0514 4.79383 20.581 4.05251C20.6766 4.00664 20.7391 3.90921 20.7346 3.80404C20.6743 2.44274 20.0181 1.45431 19.3357 0.899093C18.6239 0.320426 17.7567 -0.0053298 16.7968 6.59814e-05C15.9314 0.00514174 15.1147 0.277516 14.4569 0.8168C13.7991 0.277516 12.9825 0.00514174 12.117 6.59814e-05C11.1572 -0.0053298 10.2898 0.320426 9.57843 0.899093C8.86707 1.47776 8.18438 2.52901 8.14469 3.96191C8.10534 5.34756 8.61506 7.00412 9.26943 8.15747C9.97044 9.38992 10.8933 10.3559 11.833 11.133C12.2089 11.4344 12.7419 11.7839 13.2292 11.8811C13.6851 11.9625 14.1103 11.902 14.4737 11.6363ZM11.9895 13.4183C11.8594 13.0101 11.4956 12.707 11.087 12.3891C10.5736 11.9866 10.0254 11.4896 9.48699 10.9627C8.99843 10.4856 8.47984 9.84908 8.10045 9.24218C7.4057 8.09771 6.90201 6.9463 6.67047 5.26095C6.65614 5.15657 6.58301 5.06665 6.48145 5.03854C5.16918 4.67545 4.02726 4.99438 3.28872 5.47265C2.51903 5.97096 1.94153 6.69589 1.65017 7.61124C1.38735 8.43644 1.39383 9.29807 1.70294 10.0908C0.987262 10.5503 0.476066 11.2435 0.203921 12.0657C-0.0979064 12.9777 -0.0563966 13.904 0.273635 14.7599C0.603666 15.6158 1.39167 16.5905 2.74102 17.071C4.04568 17.5367 5.77727 17.5634 7.07556 17.297C8.46323 17.0106 9.66634 16.4306 10.6952 15.7763C11.0978 15.5116 11.5946 15.1122 11.8376 14.6785C12.0558 14.2697 12.1296 13.8462 11.9895 13.4183Z" fill="#4E76C6"/>
</svg>
