<svg width="18" height="18" viewBox="0 0 18 18" fill="none" xmlns="http://www.w3.org/2000/svg">
<g clip-path="url(#clip0_6332_1347)">
<path d="M9.2445 0C4.31025 0.00075 1.6875 3.162 1.6875 6.609C1.6875 8.20725 2.58075 10.2015 4.011 10.8338C4.419 11.0175 4.365 10.7933 4.716 9.45075C4.74375 9.339 4.7295 9.24225 4.6395 9.138C2.595 6.77325 4.2405 1.91175 8.95275 1.91175C15.7725 1.91175 14.4983 11.3483 10.1392 11.3483C9.01575 11.3483 8.17875 10.4663 8.4435 9.375C8.7645 8.07525 9.393 6.678 9.393 5.74125C9.393 3.38025 5.8755 3.7305 5.8755 6.85875C5.8755 7.8255 6.2175 8.478 6.2175 8.478C6.2175 8.478 5.08575 13.05 4.87575 13.9043C4.52025 15.3503 4.92375 17.691 4.959 17.8928C4.98075 18.0038 5.10525 18.039 5.175 17.9475C5.28675 17.8013 6.65475 15.8498 7.038 14.439C7.1775 13.9253 7.74975 11.8403 7.74975 11.8403C8.127 12.5213 9.2145 13.0913 10.3733 13.0913C13.8203 13.0913 16.3118 10.0613 16.3118 6.3015C16.2998 2.697 13.215 0 9.2445 0V0Z" fill="#4E76C6"/>
</g>
<defs>
<clipPath id="clip0_6332_1347">
<rect width="18" height="18" fill="white"/>
</clipPath>
</defs>
</svg>
