<svg width="18" height="18" viewBox="0 0 18 18" fill="none" xmlns="http://www.w3.org/2000/svg">
<g clip-path="url(#clip0_6332_1344)">
<path d="M17.9046 13.1381C17.8828 13.0911 17.8625 13.0521 17.8436 13.0209C17.5313 12.4584 16.9345 11.7681 16.0536 10.9496L16.0349 10.9308L16.0256 10.9216L16.0162 10.9122H16.0068C15.6069 10.5311 15.3538 10.2748 15.2477 10.1436C15.0537 9.89367 15.0103 9.64068 15.1163 9.38435C15.1912 9.19068 15.4726 8.78168 15.9598 8.15678C16.216 7.82561 16.419 7.56018 16.5689 7.36021C17.6499 5.92312 18.1185 5.0048 17.9747 4.60489L17.9189 4.51144C17.8814 4.45517 17.7845 4.4037 17.6285 4.35676C17.4721 4.30992 17.2723 4.30218 17.0285 4.33339L14.3295 4.35204C14.2858 4.33654 14.2234 4.33799 14.142 4.35676C14.0608 4.37554 14.0201 4.38496 14.0201 4.38496L13.9732 4.40843L13.9359 4.43663C13.9046 4.45527 13.8703 4.48807 13.8327 4.53494C13.7954 4.58165 13.7642 4.63647 13.7392 4.69893C13.4454 5.45493 13.1113 6.15782 12.7363 6.80756C12.5051 7.195 12.2928 7.53077 12.0989 7.81507C11.9053 8.09927 11.7428 8.30866 11.6117 8.44289C11.4804 8.57724 11.3619 8.68488 11.2555 8.76618C11.1493 8.84752 11.0682 8.88189 11.012 8.86932C10.9557 8.85675 10.9027 8.84427 10.8525 8.8318C10.7651 8.77554 10.6948 8.69902 10.6418 8.60219C10.5885 8.50535 10.5527 8.38347 10.5339 8.23665C10.5153 8.08972 10.5043 7.96334 10.5011 7.85709C10.4982 7.75096 10.4995 7.60085 10.5059 7.40718C10.5124 7.21342 10.5153 7.08231 10.5153 7.01358C10.5153 6.77612 10.5199 6.51841 10.5292 6.24038C10.5387 5.96235 10.5463 5.74206 10.5527 5.57977C10.5591 5.41732 10.562 5.24544 10.562 5.06425C10.562 4.88305 10.551 4.74095 10.5292 4.63781C10.5077 4.53481 10.4746 4.43482 10.4311 4.33789C10.3872 4.24105 10.3231 4.16615 10.2389 4.11297C10.1546 4.05986 10.0498 4.01771 9.92498 3.9864C9.59381 3.91146 9.1721 3.87092 8.65967 3.86461C7.49762 3.85214 6.75094 3.92718 6.4198 4.08963C6.2886 4.15827 6.16987 4.25205 6.06371 4.37068C5.95122 4.50819 5.93553 4.58323 6.01674 4.59557C6.39167 4.65173 6.6571 4.78609 6.81331 4.9985L6.86961 5.11106C6.9134 5.19227 6.95712 5.33604 7.00088 5.54218C7.04457 5.74833 7.07276 5.97636 7.08517 6.22616C7.11635 6.68234 7.11635 7.07283 7.08517 7.39767C7.05389 7.72264 7.02435 7.97562 6.99615 8.15682C6.96795 8.33801 6.9258 8.48484 6.86961 8.59726C6.81331 8.70972 6.77586 8.77846 6.75708 8.80341C6.73834 8.82835 6.72271 8.84408 6.71031 8.85025C6.6291 8.88137 6.54464 8.89722 6.45722 8.89722C6.36968 8.89722 6.26352 8.85343 6.13859 8.76592C6.01369 8.67841 5.88406 8.5582 5.74971 8.40511C5.61535 8.25198 5.46383 8.03799 5.29508 7.76311C5.12645 7.48823 4.9515 7.16336 4.7703 6.78849L4.62039 6.51663C4.52667 6.34174 4.39865 6.08708 4.2362 5.75289C4.07365 5.41856 3.92997 5.09517 3.80507 4.78277C3.75515 4.65157 3.68014 4.55168 3.58019 4.48294L3.53328 4.45475C3.5021 4.4298 3.45204 4.40331 3.38337 4.37508C3.3146 4.34688 3.24284 4.32666 3.1678 4.31422L0.599915 4.33287C0.337509 4.33287 0.159465 4.39231 0.0657162 4.51104L0.0281969 4.56721C0.00945368 4.59849 0 4.64845 0 4.71722C0 4.78595 0.0187432 4.87032 0.0562625 4.9702C0.431127 5.85123 0.838784 6.70092 1.27923 7.51938C1.71968 8.33785 2.10243 8.99714 2.42723 9.49668C2.7521 9.99657 3.08325 10.4684 3.42066 10.9118C3.75807 11.3555 3.98141 11.6398 4.09069 11.7647C4.20009 11.8898 4.28603 11.9834 4.3485 12.0458L4.58284 12.2707C4.73278 12.4207 4.95297 12.6003 5.24351 12.8096C5.53411 13.019 5.85583 13.2251 6.20883 13.4283C6.5619 13.6312 6.97265 13.7968 7.44129 13.9248C7.90987 14.053 8.36595 14.1045 8.80958 14.0796H9.88737C10.1059 14.0608 10.2716 13.992 10.3841 13.8734L10.4214 13.8264C10.4465 13.7891 10.4699 13.7312 10.4916 13.6532C10.5135 13.5752 10.5244 13.4891 10.5244 13.3955C10.518 13.1269 10.5385 12.8848 10.5852 12.6693C10.6319 12.4538 10.6852 12.2914 10.7447 12.182C10.8042 12.0727 10.8714 11.9804 10.9461 11.9057C11.0211 11.8307 11.0744 11.7853 11.1057 11.7697C11.1369 11.754 11.1617 11.7433 11.1805 11.7369C11.3304 11.6869 11.5069 11.7353 11.7101 11.8823C11.9132 12.0291 12.1037 12.2104 12.2819 12.4259C12.4599 12.6415 12.6739 12.8835 12.9238 13.1521C13.1738 13.4208 13.3924 13.6205 13.5798 13.7519L13.7671 13.8644C13.8923 13.9394 14.0547 14.0082 14.2547 14.0707C14.4543 14.1331 14.6292 14.1487 14.7794 14.1175L17.1785 14.0801C17.4158 14.0801 17.6004 14.0408 17.7314 13.9628C17.8626 13.8847 17.9406 13.7987 17.9657 13.7051C17.9908 13.6114 17.9922 13.5051 17.9705 13.3863C17.9483 13.2678 17.9264 13.1849 17.9046 13.1381Z" fill="#4E76C6"/>
</g>
<defs>
<clipPath id="clip0_6332_1344">
<rect width="18" height="18" fill="white"/>
</clipPath>
</defs>
</svg>
