<svg width="18" height="18" viewBox="0 0 18 18" fill="none" xmlns="http://www.w3.org/2000/svg">
<path d="M17.082 4.78239C16.8875 4.05945 16.3175 3.48957 15.5947 3.29491C14.2742 2.93359 8.99198 2.93359 8.99198 2.93359C8.99198 2.93359 3.71 2.93359 2.38947 3.28121C1.68055 3.47567 1.09666 4.05955 0.902199 4.78239C0.554688 6.10281 0.554688 8.84118 0.554688 8.84118C0.554688 8.84118 0.554688 11.5934 0.902199 12.9C1.09686 13.6228 1.66664 14.1927 2.38958 14.3874C3.7239 14.7488 8.99219 14.7488 8.99219 14.7488C8.99219 14.7488 14.2742 14.7488 15.5947 14.4012C16.3176 14.2066 16.8875 13.6367 17.0822 12.9139C17.4296 11.5934 17.4296 8.85509 17.4296 8.85509C17.4296 8.85509 17.4435 6.10281 17.082 4.78239ZM7.31025 11.371V6.31137L11.7027 8.84118L7.31025 11.371Z" fill="#4E76C6"/>
</svg>
